HIERARCHY
ROOT Hips
{
    OFFSET 0.000000 0.000000 0.000000
    CHANNELS 6 Xposition Yposition Zposition Zrotation Xrotation Yrotation
    JOINT Spine
    {
        OFFSET -0.000000 7.236184 0.000000
        CHANNELS 3 Zrotation Xrotation Yrotation
        JOINT Spine1
        {
            OFFSET -0.000000 20.420147 0.000000
            CHANNELS 3 Zrotation Xrotation Yrotation
            JOINT Neck
            {
                OFFSET -0.000000 20.336288 1.848754
                CHANNELS 3 Zrotation Xrotation Yrotation
                JOINT Head
                {
                    OFFSET -0.000000 12.354461 -1.764923
                    CHANNELS 3 Zrotation Xrotation Yrotation
                    End Site
                    {
                        OFFSET -0.000000 22.061537 0.000000
                    }
                }
            }
            JOINT LeftShoulder
            {
                OFFSET 3.573296 18.396038 -0.314103
                CHANNELS 3 Zrotation Xrotation Yrotation
                JOINT LeftArm
                {
                    OFFSET 10.880760 0.000000 0.000000
                    CHANNELS 3 Zrotation Xrotation Yrotation
                    JOINT LeftForeArm
                    {
                        OFFSET 27.185530 0.000000 0.000000
                        CHANNELS 3 Zrotation Xrotation Yrotation
                        JOINT LeftHand
                        {
                            OFFSET 27.825975 0.000000 0.000000
                            CHANNELS 3 Zrotation Xrotation Yrotation
                            End Site
                            {
                                OFFSET 13.236923 0.000000 0.000000
                            }
                        }
                    }
                }
            }
            JOINT RightShoulder
            {
                OFFSET -3.474926 18.396038 -0.314103
                CHANNELS 3 Zrotation Xrotation Yrotation
                JOINT RightArm
                {
                    OFFSET -10.880760 0.000000 0.000000
                    CHANNELS 3 Zrotation Xrotation Yrotation
                    JOINT RightForeArm
                    {
                        OFFSET -27.185530 0.000000 0.000000
                        CHANNELS 3 Zrotation Xrotation Yrotation
                        JOINT RightHand
                        {
                            OFFSET -27.825975 0.000000 0.000000
                            CHANNELS 3 Zrotation Xrotation Yrotation
                            End Site
                            {
                                OFFSET -13.236923 0.000000 0.000000
                            }
                        }
                    }
                }
            }
        }
    }
    JOINT LeftUpLeg
    {
        OFFSET 8.824615 0.000000 0.000000
        CHANNELS 3 Zrotation Xrotation Yrotation
        JOINT LeftLeg
        {
            OFFSET -0.000000 -35.111282 0.000000
            CHANNELS 3 Zrotation Xrotation Yrotation
            JOINT LeftFoot
            {
                OFFSET -0.000000 -42.324711 0.000000
                CHANNELS 3 Zrotation Xrotation Yrotation
                JOINT LeftToeBase
                {
                    OFFSET -0.000000 -5.735999 13.236923
                    CHANNELS 3 Zrotation Xrotation Yrotation
                    End Site
                    {
                        OFFSET -0.000000 0.000000 3.529846
                    }
                }
            }
        }
    }
    JOINT RightUpLeg
    {
        OFFSET -8.824615 0.000000 0.000000
        CHANNELS 3 Zrotation Xrotation Yrotation
        JOINT RightLeg
        {
            OFFSET -0.000000 -35.111282 0.000000
            CHANNELS 3 Zrotation Xrotation Yrotation
            JOINT RightFoot
            {
                OFFSET -0.000000 -42.324711 0.000000
                CHANNELS 3 Zrotation Xrotation Yrotation
                JOINT RightToeBase
                {
                    OFFSET -0.000000 -5.735999 13.236923
                    CHANNELS 3 Zrotation Xrotation Yrotation
                    End Site
                    {
                        OFFSET -0.000000 0.000000 3.529846
                    }
                }
            }
        }
    }
}
MOTION
Frames:    8
Frame Time:    0.008333
-5.160676    81.330055    112.565056    -2.539181    -5.825830    -177.046906    -2.777520    -10.313592    0.670161    -0.546244    5.758299    0.948381    2.929698    3.560333    -0.667360    3.611196    -13.703918    -0.102349    -2.133244    18.644567    -2.329218    -36.027222    43.480766    -44.755424    -0.233424    -0.847242    -22.179729    11.049162    -0.852930    0.414977    10.194361    20.582853    -5.231171    27.493315    48.089718    50.528622    1.171913    -17.205097    27.349930    -3.469774    -17.474279    -0.104391    -2.432384    -6.899087    -7.918061    -1.866783    12.408887    -0.199354    -0.677834    -11.738093    -4.944950    -0.483728    1.261777    0.534992    -2.202600    -1.558242    5.506806    3.835263    4.279898    2.608553    -6.700195    -8.590121    -14.541771    -0.549752    0.448371    0.594235    
-5.161498    81.331039    112.531326    -2.539271    -5.888804    -177.042389    -2.763969    -10.298445    0.672126    -0.550922    5.742960    0.948963    2.930420    3.427475    -0.637087    3.579674    -13.829038    -0.078872    -2.107183    18.627430    -2.299769    -36.279408    43.098537    -44.520355    -0.314231    -1.005425    -22.751661    10.269819    -1.021121    0.529253    10.154494    20.551117    -5.198357    27.278219    48.150764    50.621025    1.266131    -17.284277    28.304008    -3.075079    -17.589756    0.034898    -2.419322    -6.868515    -7.978458    -1.891098    12.276340    -0.116542    -0.676377    -11.693574    -4.967788    -0.489960    1.325003    0.541824    -2.206819    -1.591784    5.478899    3.835308    4.273703    2.610778    -6.659296    -8.555780    -14.500399    -0.538129    0.381408    0.581725    
-5.162374    81.332169    112.498177    -2.539159    -5.950775    -177.037415    -2.750011    -10.281940    0.674051    -0.556144    5.726943    0.949367    2.930918    3.296471    -0.607471    3.549003    -13.952705    -0.055807    -2.079825    18.608339    -2.272089    -36.521378    42.724907    -44.292625    -0.400334    -1.158709    -23.328833    9.505515    -1.188136    0.639984    10.114208    20.519016    -5.165462    27.067387    48.209839    50.708443    1.353578    -17.353693    29.256269    -2.690747    -17.694544    0.175983    -2.407037    -6.840423    -8.035435    -1.913460    12.149456    -0.038450    -0.675203    -11.651158    -4.990146    -0.495962    1.386096    0.548403    -2.210558    -1.626799    5.448671    3.835055    4.271377    2.613606    -6.619003    -8.523737    -14.458697    -0.526990    0.315483    0.569734    
-5.163332    81.333565    112.466217    -2.538514    -6.010698    -177.031631    -2.735332    -10.263241    0.675718    -0.562084    5.709885    0.949436    2.931211    3.168905    -0.578978    3.519421    -14.072572    -0.033839    -2.049976    18.586563    -2.247266    -36.746140    42.370861    -44.076618    -0.485887    -1.303158    -23.913698    8.770694    -1.349012    0.744611    10.073147    20.486221    -5.132591    26.863806    48.266258    50.787758    1.430421    -17.407736    30.200035    -2.325908    -17.781828    0.317912    -2.396028    -6.817227    -8.086414    -1.932629    12.033932    0.031547    -0.674575    -11.613007    -5.011810    -0.501425    1.442798    0.554388    -2.213067    -1.664536    5.414078    3.833992    4.276183    2.616834    -6.580028    -8.496956    -14.415937    -0.516881    0.252630    0.558854    
-5.164442    81.335381    112.434914    -2.537133    -6.069271    -177.024460    -2.719238    -10.240901    0.677062    -0.569254    5.691017    0.949108    2.931957    3.043338    -0.551303    3.489579    -14.191544    -0.012688    -2.015679    18.562031    -2.225044    -36.953316    42.034000    -43.871330    -0.569003    -1.440415    -24.525637    8.054087    -1.504707    0.843479    10.029963    20.451336    -5.098596    26.663008    48.321819    50.859070    1.494651    -17.443472    31.158745    -1.975392    -17.848246    0.462778    -2.386531    -6.799742    -8.131027    -1.948013    11.930750    0.092824    -0.674960    -11.579675    -5.033200    -0.506455    1.495195    0.559898    -2.214085    -1.706624    5.372419    3.831948    4.290933    2.621139    -6.542391    -8.477923    -14.371325    -0.508037    0.192209    0.549337    
-5.165737    81.337685    112.404655    -2.534803    -6.125432    -177.015640    -2.701409    -10.213821    0.678027    -0.578078    5.669594    0.948169    2.933695    2.921275    -0.524602    3.459277    -14.307734    0.007065    -1.975978    18.535337    -2.205590    -37.137180    41.721859    -43.681549    -0.645671    -1.568609    -25.165274    7.363733    -1.652611    0.933940    9.984614    20.414200    -5.063482    26.465853    48.377007    50.921654    1.542198    -17.457132    32.127022    -1.642270    -17.888571    0.608192    -2.378605    -6.789211    -8.168703    -1.959612    11.843584    0.143617    -0.676278    -11.552527    -5.053452    -0.511014    1.541772    0.564892    -2.213207    -1.753446    5.322241    3.828717    4.317609    2.626694    -6.507435    -8.468976    -14.324911    -0.501040    0.137110    0.541811    
-5.167239    81.340530    112.375572    -2.531349    -6.178565    -177.004852    -2.681601    -10.181780    0.678531    -0.588827    5.645751    0.946502    2.936717    2.803656    -0.499067    3.428555    -14.420319    0.025319    -1.930570    18.505697    -2.189378    -37.294788    41.440239    -43.508926    -0.712078    -1.688651    -25.833796    6.700838    -1.792603    1.013960    9.937197    20.374941    -5.027277    26.271412    48.431740    50.976498    1.570522    -17.447010    33.102551    -1.325179    -17.900040    0.752266    -2.372473    -6.786454    -8.199200    -1.967031    11.774940    0.183093    -0.678618    -11.532517    -5.072302    -0.515121    1.581287    0.569393    -2.210315    -1.805009    5.262730    3.824428    4.357209    2.634212    -6.475092    -8.471169    -14.277211    -0.495961    0.086794    0.536357    
-5.168987    81.343933    112.347496    -2.526770    -6.228745    -176.991867    -2.659501    -10.143826    0.678451    -0.602092    5.618396    0.944098    2.941878    2.691405    -0.474343    3.396499    -14.530730    0.042089    -1.878547    18.472252    -2.176956    -37.426491    41.190823    -43.352615    -0.766183    -1.804055    -26.536823    6.057555    -1.927387    1.082668    9.887459    20.333391    -4.988900    26.077042    48.487431    51.024784    1.577987    -17.414656    34.093163    -1.016499    -17.883318    0.894747    -2.368345    -6.791914    -8.222954    -1.970196    11.725736    0.211700    -0.682334    -11.520016    -5.090027    -0.518921    1.614513    0.573560    -2.205478    -1.861901    5.192806    3.819162    4.410911    2.644106    -6.445194    -8.484638    -14.227831    -0.492745    0.041194    0.532912    
